<?xml version="1.0" encoding="utf-8"?>
<!-- Generator: Adobe Illustrator 21.1.0, SVG Export Plug-In . SVG Version: 6.00 Build 0)  -->
<svg version="1.1" id="Layer_1" xmlns="http://www.w3.org/2000/svg" xmlns:xlink="http://www.w3.org/1999/xlink" x="0px" y="0px"
	 viewBox="0 0 493.5 700.5" style="enable-background:new 0 0 493.5 700.5;" xml:space="preserve">
<style type="text/css">
	.st0{fill:#FFFFFF;}
	.st1{fill:#F72B6A;}
	.st2{fill:#FFC91F;}
	.st3{fill:#82006A;}
	.st4{fill:#141414;}
	.st5{fill:#4DB541;}
	.st6{fill:#31CFFF;}
</style>
<g>
	<path class="st0" d="M426.6,101.7c-54.9-71.2-144.1-78.9-179.9-78.9s-125,7.7-179.9,78.9C18,165,9.6,260.1,41.9,384.3
		c-3.6,6.7-13.5,28.2-6.4,50.9c6.7,21.7,26.4,29.3,35.2,31.6c0.4,8.3,1,28.6-2.2,47c-4.8,27.4,14.5,66,53,105.9
		c39.2,40.6,76.7,57.9,125.2,57.9c48.5,0,85.9-17.3,125.2-57.9c38.5-39.9,57.9-78.5,53-105.9c-3.2-18.4-2.6-38.6-2.2-47
		c8.8-2.3,28.5-9.9,35.2-31.6c7.1-22.7-2.8-44.3-6.4-50.9C483.9,260.1,475.5,165,426.6,101.7z"/>
	<g>
		<g>
			<path class="st1" d="M270.9,52.8l-24.1,1l-24.1-1c-27.3,44.1-8.9,56,4.2,61.2c13,5.2,20,14.9,20,14.9s6.9-9.7,20-14.9
				C279.7,108.8,298.1,96.9,270.9,52.8z"/>
			<path class="st2" d="M257,47.9l-10.2,2l-10.2-2c-16.6,35.7,10.2,33.9,10.2,33.9S273.6,83.6,257,47.9z"/>
		</g>
		<g>
			<path class="st1" d="M298.5,17.9l-16.3,17.8L264.4,52c11.9,50.4,33.3,45.8,46.2,40.3c12.9-5.5,24.7-3.6,24.7-3.6
				s-2-11.8,3.6-24.7C344.4,51.2,349,29.8,298.5,17.9z"/>
			<path class="st2" d="M285.3,24.3l-5.8,8.7l-8.7,5.8c13.5,37,31.2,16.7,31.2,16.7S322.2,37.8,285.3,24.3z"/>
		</g>
		<g>
			<path class="st1" d="M195,17.9l16.3,17.8L229.1,52c-11.9,50.4-33.3,45.8-46.2,40.3c-12.9-5.5-24.7-3.6-24.7-3.6s2-11.8-3.6-24.7
				C149.1,51.2,144.5,29.8,195,17.9z"/>
			<path class="st2" d="M208.2,24.3L214,33l8.6,5.8c-13.5,37-31.2,16.7-31.2,16.7S171.3,37.8,208.2,24.3z"/>
		</g>
		<path class="st3" d="M198.2,17.9c2.9,24.3,23.5,43.1,48.6,43.1c25,0,45.7-18.8,48.6-43.1H198.2z"/>
	</g>
	<g>
		<path class="st1" d="M363.4,559.1c-5.6,15.2-20.1,11.5-20.1,11.5l0.4,1.6l-3.2-2.1l-2.2,7.9c0,0.1-2.5,8.9-8.4,8.9
			c-1.6,0-3.4-0.5-5.4-1.6l-5.9-3l-2.5,6.2c-0.2,0.6-5.5,13.6-17.5,13.6c-2.5,0-5.3-0.6-8.2-1.7l-3.7-1.4l-2.8,2.8
			c-0.1,0.1-7.6,7.3-17.9,7.3c-4.5,0-8.9-4.5-13.2-7.2h-12.1c-4.3,2.7-8.8,7.2-13.2,7.2c-10.2,0-17.8-7.3-17.9-7.3l-2.8-2.8
			l-3.7,1.4c-2.9,1.1-5.7,1.7-8.2,1.7c-12,0-17.3-13-17.5-13.6l-2.4-6.2l-5.9,3c-2,1.1-3.9,1.6-5.4,1.6c-5.8,0-8.4-8.8-8.4-8.9
			l-2.2-7.9l-3.2,2l0.4-1.5c0,0-14.4,3.7-20.1-11.5c0,0-1,6.6,1.9,13.9c2.1,5.3,6.2,11,14.3,14.7c3.2,5.6,8.8,11.2,17.3,11.2h0
			c1.7,0,3.5-0.2,5.3-0.7c3.9,6.3,12.1,15.9,26,15.9c2.9,0,6-0.4,9.1-1.3c4.2,3.2,12.7,8.3,23.4,8.3c6.7,0,13.1-2,19.3-5.8
			c6.2,3.8,12.6,5.8,19.3,5.8c10.8,0,19.2-5.1,23.4-8.3c3.1,0.9,6.1,1.3,9.1,1.3c13.9,0,22.1-9.6,26-15.9c1.8,0.5,3.6,0.7,5.3,0.7h0
			c8.6,0,14.2-5.6,17.3-11.2c0,0,0,0,0,0v0c0,0,0,0,0,0c8.1-3.7,12.2-9.4,14.3-14.7C364.4,565.6,363.4,559.1,363.4,559.1z"/>
		<path class="st1" d="M268.8,509.3c4.7,0,9.6,1.9,14.5,5.7l5.4,4l3.5-5.7c0.1-0.1,5.4-8.8,13.6-8.8c3.1,0,6.5,1.2,10,3.7l5.5,3.9
			l3.2-5.9c1.5-2.7,6-8.5,10-8.5c1.2,0,2.4,0.5,3.7,1.5l6.2,4.6l3-7.1c1-2.2,4.7-8.6,9.2-8.6c1.7,0,7.9,4.5,9.4,5.5l11.9-5.9
			l-6.5-5.4c-4.8-4.1-9.8-6.2-14.7-6.2c-7.8,0-13.6,5.2-17.2,10.3c-1.6-0.5-3.3-0.8-5-0.8c-7.7,0-13.6,5.4-17.1,9.7
			c-3.9-1.9-7.8-2.8-11.6-2.8c-9.3,0-16.1,5.4-20,9.6c-5.5-3.2-11.2-4.8-16.9-4.8c-9.9,0-17.5,4.9-22.1,8.9
			c-4.6-4-12.2-8.9-22.1-8.9c-5.7,0-11.3,1.6-16.9,4.8c-3.9-4.2-10.7-9.6-20-9.6c-3.9,0-7.8,0.9-11.6,2.8c-3.5-4.3-9.3-9.7-17.1-9.7
			c-1.7,0-3.3,0.3-5,0.8c-3.6-5.1-9.4-10.3-17.2-10.3c-4.9,0-9.9,2.1-14.7,6.2l-2,1.7l6,10.3c1.5-1,9.1-6.2,10.8-6.2
			c4.5,0,8.3,6.4,9.2,8.6l3,7.1l6.2-4.6c1.3-1,2.6-1.5,3.7-1.5c4,0,8.5,5.8,10,8.5l3.2,5.9l5.5-3.9c3.5-2.5,6.9-3.7,10-3.7
			c8.2,0,13.5,8.7,13.6,8.8l3.5,5.7l5.4-4c4.9-3.8,9.8-5.7,14.5-5.7c7.7,0,13.6,7.7,16,10.2h12.1C255.2,517,261.1,509.3,268.8,509.3
			z"/>
	</g>
	<g>
		<g>
			<path class="st3" d="M376.5,259.7c-4.1,0-7.4,3.3-7.4,7.4c0,4.1,3.3,7.4,7.4,7.4c4.1,0,7.4-3.3,7.4-7.4
				C383.9,263.1,380.6,259.7,376.5,259.7z"/>
			<path class="st3" d="M324.7,259.7c-4.1,0-7.4,3.3-7.4,7.4c0,4.1,3.3,7.4,7.4,7.4c4.1,0,7.4-3.3,7.4-7.4
				C332.2,263.1,328.8,259.7,324.7,259.7z"/>
			<circle class="st3" cx="376.5" cy="392.1" r="7.4"/>
			<path class="st3" d="M324.7,384.7c-4.1,0-7.4,3.3-7.4,7.4c0,4.1,3.3,7.4,7.4,7.4c4.1,0,7.4-3.3,7.4-7.4
				C332.2,388,328.8,384.7,324.7,384.7z"/>
			<path class="st3" d="M413.1,348.1c-4.1,0-7.4,3.3-7.4,7.4s3.3,7.4,7.4,7.4c4.1,0,7.4-3.3,7.4-7.4S417.2,348.1,413.1,348.1z"/>
			<path class="st3" d="M413.1,311.2c4.1,0,7.4-3.3,7.4-7.4c0-4.1-3.3-7.4-7.4-7.4c-4.1,0-7.4,3.3-7.4,7.4
				C405.7,307.9,409,311.2,413.1,311.2z"/>
			<path class="st3" d="M288.1,348.1c-4.1,0-7.4,3.3-7.4,7.4s3.3,7.4,7.4,7.4c4.1,0,7.4-3.3,7.4-7.4S292.2,348.1,288.1,348.1z"/>
			<circle class="st3" cx="288.1" cy="303.8" r="7.4"/>
		</g>
		<g>
			<polygon class="st2" points="393.5,329.6 393.5,311.9 393.5,311.9 381,299.3 368.4,286.8 368.4,286.8 350.6,286.8 332.9,286.8 
				332.9,286.8 320.3,299.3 307.7,311.9 307.7,329.6 307.7,347.4 320.3,360 332.9,372.5 332.9,372.5 350.6,372.5 368.4,372.5 
				381,360 393.5,347.4 393.5,347.4 			"/>
			<polygon class="st2" points="368.4,286.8 368.4,286.8 368.4,286.8 			"/>
			<polygon class="st2" points="324.1,265.6 324.1,265.6 324.1,265.6 			"/>
			<polygon class="st2" points="332.9,286.8 332.9,286.8 332.9,286.8 			"/>
			<polygon class="st2" points="377.2,393.7 377.2,393.7 377.2,393.7 			"/>
			<polygon class="st2" points="332.9,372.5 332.9,372.5 332.9,372.5 			"/>
			<path class="st2" d="M324.1,393.7C324.1,393.7,324.1,393.7,324.1,393.7L324.1,393.7C324.1,393.7,324.1,393.7,324.1,393.7z"/>
			<polygon class="st2" points="414.7,356.2 414.7,356.2 414.7,356.2 			"/>
			<polygon class="st2" points="393.5,347.4 393.5,347.4 393.5,347.4 			"/>
			<polygon class="st2" points="393.5,311.9 393.5,311.9 393.5,311.9 			"/>
			<polygon class="st2" points="414.7,303.1 414.7,303.1 414.7,303.1 			"/>
			<polygon class="st2" points="286.6,303.1 286.6,303.1 286.6,303.1 			"/>
			<polygon class="st2" points="286.6,356.2 286.6,356.2 286.6,356.2 			"/>
			<polygon class="st2" points="377.2,265.6 377.2,265.6 377.2,265.6 			"/>
			<path class="st2" d="M414.7,303.1c-3.4-14.5-12.4-25.1-12.4-25.1s-10.7-9-25.1-12.4v0l-8.8,21.2l12.6,12.6l12.6,12.6L414.7,303.1
				C414.7,303.1,414.7,303.1,414.7,303.1z"/>
			<path class="st2" d="M320.3,360l-12.6-12.6v0l-21.2,8.7c0,0,0,0,0,0c3.4,14.5,12.4,25.1,12.4,25.1s10.7,9,25.1,12.4c0,0,0,0,0,0
				l8.8-21.2v0L320.3,360z"/>
			<path class="st2" d="M368.4,372.5h-17.8h-17.8v0l-8.8,21.2v0c12.6,7.8,26.5,9,26.5,9s13.9-1.1,26.5-9L368.4,372.5z"/>
			<path class="st2" d="M414.7,303.1l-21.2,8.8v17.8v17.8l21.2,8.8c7.8-12.6,9-26.5,9-26.5S422.5,315.7,414.7,303.1z"/>
			<path class="st2" d="M393.5,347.4L381,360l-12.6,12.6l8.8,21.2l0,0c14.5-3.4,25.1-12.4,25.1-12.4s9-10.7,12.4-25.1c0,0,0,0,0,0
				L393.5,347.4z"/>
			<path class="st2" d="M350.6,256.6c0,0-13.9,1.1-26.5,9v0l8.8,21.2h17.8h17.8l8.8-21.2c0,0,0,0,0,0
				C364.6,257.7,350.6,256.6,350.6,256.6z"/>
			<path class="st2" d="M324.1,265.6C309.6,268.9,299,278,299,278s-9,10.7-12.4,25.1c0,0,0,0,0,0l21.2,8.8l12.6-12.6l12.6-12.6
				L324.1,265.6z"/>
			<path class="st2" d="M286.6,303.1c-7.8,12.6-9,26.5-9,26.5s1.1,13.9,9,26.5l21.2-8.7v0v-17.8v-17.8L286.6,303.1z"/>
		</g>
		<circle class="st4" cx="350.6" cy="329.6" r="50.6"/>
	</g>
	<g>
		<g>
			<path class="st4" d="M417.7,462.5c0,0-18.3,0.7-33-10.4c-14.7-11.1-29.8-2.8-34.9,4.4c0,0,17.6-3,28.5,9
				c10.9,12.1,27.7,22.1,52.3,19.1C455.2,481.6,440.8,462.5,417.7,462.5z"/>
			<path class="st4" d="M401,460.1c10.9,3,20.7,2.6,31.3-2.7c10.6-5.3,9.7,2.3,9.7,2.3l-17.5,13.6c0,0-12.6-1.8-14.2-2.2
				c-1.7-0.4-9.7-5.9-9.7-5.9L401,460.1z"/>
			<path class="st4" d="M373.1,460.1c0,0-14.6,33-2.1,100.9c0,0,3.4-70.4,18.6-98.3L373.1,460.1z"/>
			<path class="st4" d="M448.7,390.7c0,0-4.8-10.2-16.8-22.2c0,0,14.6-0.6,31.4,7.2C480.1,383.6,448.7,390.7,448.7,390.7z"/>
		</g>
		<g>
			<path class="st4" d="M75.7,462.5c0,0,18.3,0.7,33-10.4c14.8-11.1,29.8-2.8,34.9,4.4c0,0-17.6-3-28.5,9
				c-10.9,12.1-27.7,22.1-52.3,19.1C38.1,481.6,52.5,462.5,75.7,462.5z"/>
			<path class="st4" d="M92.3,460.1c-10.9,3-20.7,2.6-31.3-2.7c-10.6-5.3-9.7,2.3-9.7,2.3l17.5,13.6c0,0,12.6-1.8,14.2-2.2
				c1.7-0.4,9.7-5.9,9.7-5.9L92.3,460.1z"/>
			<path class="st4" d="M120.2,460.1c0,0,14.6,33,2.1,100.9c0,0-3.4-70.4-18.6-98.3L120.2,460.1z"/>
			<path class="st4" d="M44.6,390.7c0,0,4.8-10.2,16.8-22.2c0,0-14.6-0.6-31.4,7.2C13.2,383.6,44.6,390.7,44.6,390.7z"/>
		</g>
	</g>
	<g>
		<g>
			<path class="st3" d="M116.9,259.7c4.1,0,7.4,3.3,7.4,7.4c0,4.1-3.3,7.4-7.4,7.4c-4.1,0-7.4-3.3-7.4-7.4
				C109.5,263.1,112.8,259.7,116.9,259.7z"/>
			<path class="st3" d="M168.7,259.7c4.1,0,7.4,3.3,7.4,7.4c0,4.1-3.3,7.4-7.4,7.4s-7.4-3.3-7.4-7.4
				C161.3,263.1,164.6,259.7,168.7,259.7z"/>
			<circle class="st3" cx="116.9" cy="392.1" r="7.4"/>
			<circle class="st3" cx="168.7" cy="392.1" r="7.4"/>
			<path class="st3" d="M80.3,348.1c4.1,0,7.4,3.3,7.4,7.4s-3.3,7.4-7.4,7.4c-4.1,0-7.4-3.3-7.4-7.4S76.2,348.1,80.3,348.1z"/>
			<path class="st3" d="M80.3,311.2c-4.1,0-7.4-3.3-7.4-7.4c0-4.1,3.3-7.4,7.4-7.4c4.1,0,7.4,3.3,7.4,7.4
				C87.7,307.9,84.4,311.2,80.3,311.2z"/>
			<path class="st3" d="M205.3,348.1c4.1,0,7.4,3.3,7.4,7.4s-3.3,7.4-7.4,7.4c-4.1,0-7.4-3.3-7.4-7.4S201.2,348.1,205.3,348.1z"/>
			<circle class="st3" cx="205.3" cy="303.8" r="7.4"/>
		</g>
		<g>
			<polygon class="st2" points="99.9,329.6 99.9,311.9 99.9,311.9 112.5,299.3 125,286.8 125,286.8 142.8,286.8 160.6,286.8 
				160.6,286.8 173.1,299.3 185.7,311.9 185.7,329.6 185.7,347.4 173.1,360 160.6,372.5 160.6,372.5 142.8,372.5 125,372.5 
				112.5,360 99.9,347.4 99.9,347.4 			"/>
			<polygon class="st2" points="125,286.8 125,286.8 125,286.8 			"/>
			<polygon class="st2" points="169.3,265.6 169.3,265.6 169.3,265.6 			"/>
			<polygon class="st2" points="160.6,286.8 160.6,286.8 160.6,286.8 			"/>
			<polygon class="st2" points="116.3,393.7 116.3,393.7 116.3,393.7 			"/>
			<polygon class="st2" points="160.6,372.5 160.6,372.5 160.6,372.5 			"/>
			<path class="st2" d="M169.3,393.7C169.3,393.7,169.3,393.7,169.3,393.7L169.3,393.7C169.3,393.7,169.3,393.7,169.3,393.7z"/>
			<path class="st2" d="M78.7,356.2C78.7,356.2,78.7,356.2,78.7,356.2C78.7,356.2,78.7,356.2,78.7,356.2L78.7,356.2z"/>
			<polygon class="st2" points="99.9,347.4 99.9,347.4 99.9,347.4 			"/>
			<polygon class="st2" points="99.9,311.9 99.9,311.9 99.9,311.9 			"/>
			<path class="st2" d="M78.7,303.1C78.7,303.1,78.7,303.1,78.7,303.1C78.7,303.1,78.7,303.1,78.7,303.1L78.7,303.1z"/>
			<polygon class="st2" points="206.9,303.1 206.9,303.1 206.9,303.1 			"/>
			<polygon class="st2" points="206.9,356.2 206.9,356.2 206.9,356.2 			"/>
			<polygon class="st2" points="116.3,265.6 116.3,265.6 116.3,265.6 			"/>
			<path class="st2" d="M78.7,303.1c3.4-14.5,12.4-25.1,12.4-25.1s10.7-9,25.1-12.4v0l8.8,21.2l-12.6,12.6l-12.6,12.6L78.7,303.1
				C78.7,303.1,78.7,303.1,78.7,303.1z"/>
			<path class="st2" d="M173.1,360l12.6-12.6v0l21.2,8.7c0,0,0,0,0,0c-3.4,14.5-12.4,25.1-12.4,25.1s-10.7,9-25.1,12.4c0,0,0,0,0,0
				l-8.8-21.2v0L173.1,360z"/>
			<path class="st2" d="M125,372.5h17.8h17.8v0l8.8,21.2v0c-12.6,7.8-26.5,9-26.5,9s-13.9-1.1-26.5-9L125,372.5z"/>
			<path class="st2" d="M78.7,303.1l21.2,8.8v17.8v17.8l-21.2,8.8c-7.8-12.6-9-26.5-9-26.5S70.9,315.7,78.7,303.1z"/>
			<path class="st2" d="M99.9,347.4l12.6,12.6l12.6,12.6l-8.8,21.2l0,0c-14.5-3.4-25.1-12.4-25.1-12.4s-9-10.7-12.4-25.1
				c0,0,0,0,0,0L99.9,347.4z"/>
			<path class="st2" d="M142.8,256.6c0,0,13.9,1.1,26.5,9v0l-8.8,21.2h-17.8H125l-8.8-21.2c0,0,0,0,0,0
				C128.9,257.7,142.8,256.6,142.8,256.6z"/>
			<path class="st2" d="M169.3,265.6c14.5,3.4,25.1,12.4,25.1,12.4s9,10.7,12.4,25.1c0,0,0,0,0,0l-21.2,8.8l-12.6-12.6l-12.6-12.6
				L169.3,265.6z"/>
			<path class="st2" d="M206.9,303.1c7.8,12.6,9,26.5,9,26.5s-1.1,13.9-9,26.5l-21.2-8.7v0v-17.8v-17.8L206.9,303.1z"/>
		</g>
		<circle class="st4" cx="142.8" cy="329.6" r="50.6"/>
	</g>
	<g>
		<g>
			<g>
				<g>
					<g>
						<path class="st5" d="M281.8,266.8l-5.9-8.1c40.8-29.9,43.1-48.2,46.3-73.7c1.8-14.3,3.8-30.4,12.6-51.3
							c25.3-59.6,70.1-65.6,72-65.9l1.2,10l-0.6-5l0.6,5c-0.1,0-10.4,1.4-23.3,9.4c-11.9,7.4-28.7,22.1-40.7,50.4
							c-8.3,19.5-10.2,35-11.9,48.6C328.7,213.2,326.1,234.4,281.8,266.8z"/>
					</g>
					<g>
						<path class="st5" d="M347.4,175.3c-8.3-56.3,12.8-81,13.7-82l7.6,6.6c0,0.1-4.8,5.6-8.5,17.4c-3.5,11-6.8,29.7-2.8,56.5
							L347.4,175.3z"/>
					</g>
					<g>
						<path class="st5" d="M310.2,176.7c-4.1,0-8.3-0.9-12.6-2.6l3.8-9.3c6,2.5,11.5,2.5,16.2,0.1c6.1-3.1,9.8-9.5,10.6-12.8
							l9.7,2.5c-1.6,6.3-7.3,15-15.8,19.3C318.4,175.8,314.4,176.7,310.2,176.7z"/>
					</g>
					<g>
						<path class="st5" d="M297.6,234.2c-8,0-15.6-2.9-22.1-8.5l6.6-7.6c7.3,6.3,14.8,6.6,19.8,5.6c6.6-1.2,11.8-5,13.4-8.2l8.9,4.7
							c-3.3,6.3-11.5,11.7-20.5,13.4C301.7,234.1,299.6,234.2,297.6,234.2z"/>
					</g>
				</g>
				<path class="st5" d="M346.6,168.8c0.5,7.9,3.9,27.2,21.2,30.2c0,0,9.3-19.9-11.7-37L346.6,168.8z"/>
				<path class="st5" d="M297.6,174.1c-10.7-5-11.5-18.4-4.4-25.3c0,0,15.3,3.6,17.5,21.4L297.6,174.1z"/>
				<path class="st5" d="M275.5,225.7c-10.9-9.8-5.3-22.4,0-25.7c0,0,16.8,4.5,15.6,27.3L275.5,225.7z"/>
				<path class="st5" d="M281.8,266.8c-10.1,7.3-22,9.9-22,9.9s-6.8-37.1,36.6-30.7L281.8,266.8z"/>
			</g>
			<g>
				<g>
					<g>
						<path class="st5" d="M211.7,266.8l5.9-8.1c-40.8-29.9-43.1-48.2-46.3-73.7c-1.8-14.3-3.8-30.4-12.6-51.3
							c-25.3-59.6-70.1-65.6-72-65.9l-1.2,10l0.6-5l-0.6,5c0.1,0,10.4,1.4,23.3,9.4c11.9,7.4,28.7,22.1,40.7,50.4
							c8.3,19.5,10.2,35,11.9,48.6C164.7,213.2,167.4,234.4,211.7,266.8z"/>
					</g>
					<g>
						<path class="st5" d="M146,175.3c8.3-56.3-12.8-81-13.7-82l-7.6,6.6c0,0.1,4.8,5.6,8.5,17.4c3.5,11,6.8,29.7,2.8,56.5
							L146,175.3z"/>
					</g>
					<g>
						<path class="st5" d="M183.3,176.7c4.1,0,8.3-0.9,12.6-2.6l-3.8-9.3c-6,2.5-11.5,2.5-16.2,0.1c-6.1-3.1-9.8-9.5-10.6-12.8
							l-9.7,2.5c1.6,6.3,7.3,15,15.8,19.3C175.1,175.8,179.1,176.7,183.3,176.7z"/>
					</g>
					<g>
						<path class="st5" d="M195.9,234.2c8,0,15.6-2.9,22.1-8.5l-6.6-7.6c-7.3,6.3-14.8,6.6-19.8,5.6c-6.6-1.2-11.8-5-13.4-8.2
							l-8.9,4.7c3.3,6.3,11.5,11.7,20.5,13.4C191.8,234.1,193.8,234.2,195.9,234.2z"/>
					</g>
				</g>
				<path class="st5" d="M146.8,168.8c-0.5,7.9-3.9,27.2-21.2,30.2c0,0-9.3-19.9,11.7-37L146.8,168.8z"/>
				<path class="st5" d="M195.9,174.1c10.7-5,11.5-18.4,4.4-25.3c0,0-15.3,3.6-17.5,21.4L195.9,174.1z"/>
				<path class="st5" d="M217.9,225.7c10.9-9.8,5.3-22.4,0-25.7c0,0-16.8,4.5-15.6,27.3L217.9,225.7z"/>
				<path class="st5" d="M211.7,266.8c10.1,7.3,22,9.9,22,9.9s6.8-37.1-36.6-30.7L211.7,266.8z"/>
			</g>
		</g>
		<g>
			<g>
				<g>
					<path class="st5" d="M19.5,327.2c1-0.5,25-13,27.9-52.8l0.2-2.3c2.6-35.5,4.1-56.9,31.5-78.9l-6.3-7.8
						c-30.9,24.7-32.6,49.1-35.3,86l-0.2,2.3C35,307.5,15.8,317.8,15,318.3L19.5,327.2z"/>
				</g>
				<path class="st5" d="M64.6,192.7c9.4-8.8,8.8-19,20.7-27.3c11.9-8.3,22.9-9.5,32.1-24.2c0,0,15.3,49-43.8,56.1L64.6,192.7z"/>
				<path class="st5" d="M61.8,195.5c0,0,1.1-7-1.8-15.3c-2.4-6.9,0.6-14.7,0.6-14.7s-13.9,4.6-13,22.1c0.5,10.5,5.1,16.6-0.8,30.4
					c-3.3,7.9,2.6,8.1,2.6,8.1l12.4-20.7L61.8,195.5z"/>
				<g>
					<path class="st5" d="M85.6,233.2C85.5,233.2,85.5,233.2,85.6,233.2C85.5,233.2,85.5,233.2,85.6,233.2L85.6,233.2z"/>
					<path class="st5" d="M94.2,211.7c2.1,10.7-3.7,17.9-8.6,21.5c0,0,0,0,0,0c-1,0.7-2,1.2-3,1.5c-6.8,2.4-14.7-0.9-15-9.2
						c-0.3-9.6,14.5-9,11.7,2.1c0.4-0.2,9.1-4.4,7.1-14.5c-2.7-13.6-17.3-12.3-19-12.1l-0.5-4l-0.5-4
						C74.5,192.2,90.8,194.8,94.2,211.7z"/>
				</g>
			</g>
			<g>
				<g>
					<path class="st5" d="M473.9,327.2c-1-0.5-25-13-27.9-52.8l-0.2-2.3c-2.6-35.5-4.1-56.9-31.5-78.9l6.3-7.8
						c30.9,24.7,32.6,49.1,35.3,86l0.2,2.3c2.4,33.7,21.6,44.1,22.4,44.5L473.9,327.2z"/>
				</g>
				<path class="st5" d="M428.9,192.7c-9.4-8.8-8.8-19-20.7-27.3c-11.9-8.3-22.9-9.5-32.1-24.2c0,0-15.3,49,43.8,56.1L428.9,192.7z"
					/>
				<path class="st5" d="M431.7,195.5c0,0-1.1-7,1.8-15.3c2.4-6.9-0.6-14.7-0.6-14.7s13.9,4.6,13,22.1c-0.5,10.5-5.1,16.6,0.8,30.4
					c3.3,7.9-2.6,8.1-2.6,8.1l-12.4-20.7L431.7,195.5z"/>
				<g>
					<path class="st5" d="M407.9,233.2C407.9,233.2,408,233.2,407.9,233.2C408,233.2,408,233.2,407.9,233.2L407.9,233.2z"/>
					<path class="st5" d="M399.3,211.7c-2.1,10.7,3.7,17.9,8.6,21.5c0,0,0,0,0,0c1,0.7,2,1.2,3,1.5c6.8,2.4,14.7-0.9,15-9.2
						c0.3-9.6-14.5-9-11.7,2.1c-0.4-0.2-9.1-4.4-7.1-14.5c2.7-13.6,17.3-12.3,19-12.1l0.5-4l0.5-4
						C419,192.2,402.6,194.8,399.3,211.7z"/>
				</g>
			</g>
		</g>
	</g>
	<g>
		<path class="st4" d="M260.6,477c-4.6,0-9.4-1.3-13.8-3.8c-4.5,2.5-9.2,3.8-13.8,3.8c-8.1,0-15.6-4-20.5-10.9
			c-6.5-9.2-7.6-21.9-3-34.9c10.5-29.6,33.4-46.1,34.4-46.8l2.9-2.1l2.9,2.1c1,0.7,23.9,17.3,34.4,46.8c4.6,13,3.5,25.7-3,34.9
			C276.1,473,268.7,477,260.6,477L260.6,477z"/>
		<path class="st1" d="M246.7,388.4c0,0,22.5,16,32.6,44.4c7.8,22-3.7,39.1-18.7,39.1c-4.4,0-9.2-1.5-13.8-4.8
			c-4.7,3.3-9.4,4.8-13.8,4.8c-15.1,0-26.5-17.2-18.7-39.1C224.3,404.4,246.7,388.4,246.7,388.4 M246.7,376l-5.8,4.2
			c-1,0.7-25.2,18.2-36.2,49.2c-5.2,14.5-3.8,28.9,3.6,39.5c5.9,8.3,14.8,13.1,24.6,13.1c4.7,0,9.3-1.1,13.8-3.2
			c4.5,2.1,9.2,3.2,13.8,3.2c9.8,0,18.7-4.8,24.6-13.1c7.5-10.6,8.8-25,3.6-39.5c-11-31.1-35.2-48.5-36.2-49.3L246.7,376L246.7,376z
			"/>
	</g>
	<g>
		<g>
			<rect x="281" y="521.8" class="st4" width="12.1" height="70"/>
		</g>
		<g>
			<rect x="313.1" y="514.9" class="st4" width="12.1" height="68.5"/>
		</g>
		<g>
			<rect x="338.8" y="501.5" class="st4" width="12.1" height="64.1"/>
		</g>
		<g>
			<g>
				<path class="st4" d="M246.8,567.1V555c0.8,0,78.4-1.1,119.7-35.5l6.8,10c-18.8,15.7-45.9,26.8-80.4,33
					C267.4,567,247.6,567.1,246.8,567.1z"/>
			</g>
		</g>
		<g>
			<g>
				<path class="st4" d="M363.3,559.1c-1.7,2-5.4,5.5-9.9,5.5c-2,0-4-0.7-6.2-2.1l-6.9-4.4l-2.2,7.9c0,0.1-2.5,8.9-8.4,8.9
					c-1.6,0-3.4-0.5-5.4-1.6l-5.9-3l-2.5,6.2c-0.2,0.6-5.5,13.6-17.5,13.6c-2.5,0-5.3-0.6-8.2-1.7l-3.7-1.4l-2.8,2.8
					c-0.1,0.1-7.6,7.3-17.9,7.3c-4.5,0-8.9-1.4-13.2-4.1v-64.3c2.4-2.5,8.3-7.7,16-7.7c4.7,0,9.6,1.9,14.5,5.7l5.4,4l3.5-5.7
					c0.1-0.1,5.4-8.8,13.6-8.8c3.1,0,6.5,1.2,10,3.7l5.5,3.9l3.2-5.9c1.5-2.7,6-8.5,10-8.5c1.2,0,2.4,0.5,3.7,1.5l6.2,4.6l3-7.1
					c1-2.2,4.7-8.6,9.2-8.6c1.7,0,3.4,0.8,4.9,1.8l11.9-5.9l-2-1.7c-4.8-4.1-9.8-6.2-14.7-6.2c-7.8,0-13.6,5.2-17.2,10.3
					c-1.6-0.5-3.3-0.8-5-0.8c-7.7,0-13.6,5.4-17.1,9.7c-3.9-1.9-7.8-2.8-11.6-2.8c-9.3,0-16.1,5.4-20,9.6
					c-5.5-3.2-11.2-4.8-16.9-4.8c-16.3,0-26.4,13.3-26.9,13.8l-1.2,1.6v74.7l2.4,1.8c7.2,5.5,14.9,8.2,22.9,8.2
					c10.8,0,19.2-5.1,23.4-8.4c3.1,0.9,6.1,1.3,9.1,1.3c13.9,0,22.1-9.6,26-15.9c1.8,0.5,3.6,0.7,5.3,0.7h0
					c8.6,0,14.2-5.6,17.3-11.2C347.2,575.7,359.8,574.6,363.3,559.1z"/>
			</g>
		</g>
		<g>
			<rect x="200.5" y="521.8" class="st4" width="12.1" height="70"/>
		</g>
		<g>
			<rect x="168.3" y="514.9" class="st4" width="12.1" height="68.5"/>
		</g>
		<g>
			<rect x="142.6" y="501.5" class="st4" width="12.1" height="64.1"/>
		</g>
		<g>
			<g>
				<path class="st4" d="M246.7,567.1l0-12.1c-0.8,0-78.4-1.1-119.7-35.5l-6.8,10c18.8,15.7,45.9,26.8,80.4,33
					C226.1,567,245.9,567.1,246.7,567.1z"/>
			</g>
		</g>
		<g>
			<g>
				<path class="st4" d="M130.2,559.1c1.7,2,5.4,5.5,9.8,5.5c2,0,4-0.7,6.2-2.1l6.9-4.4l2.2,7.9c0,0.1,2.5,8.9,8.4,8.9
					c1.6,0,3.4-0.5,5.4-1.6l5.9-3l2.4,6.2c0.2,0.6,5.5,13.6,17.5,13.6c2.5,0,5.3-0.6,8.2-1.7l3.7-1.4l2.8,2.8
					c0.1,0.1,7.6,7.3,17.9,7.3c4.5,0,8.9-1.4,13.2-4.1v-64.3c-2.4-2.5-8.3-7.7-16-7.7c-4.7,0-9.6,1.9-14.5,5.7l-5.4,4l-3.5-5.7
					c-0.1-0.1-5.4-8.8-13.6-8.8c-3.1,0-6.5,1.2-10,3.7l-5.5,3.9l-3.2-5.9c-1.5-2.7-6-8.5-10-8.5c-1.2,0-2.4,0.5-3.7,1.5l-6.2,4.6
					l-3-7.1c-1-2.2-4.7-8.6-9.2-8.6c-1.7,0-3.4,0.8-4.9,1.8l-11.9-5.9l2-1.7c4.8-4.1,9.8-6.2,14.7-6.2c7.8,0,13.6,5.2,17.2,10.3
					c1.6-0.5,3.3-0.8,5-0.8c7.7,0,13.6,5.4,17.1,9.7c3.9-1.9,7.8-2.8,11.6-2.8c9.3,0,16.1,5.4,20,9.6c5.5-3.2,11.2-4.8,16.9-4.8
					c16.3,0,26.4,13.3,26.9,13.8l1.2,1.6v74.7l-2.4,1.8c-7.2,5.5-14.9,8.2-22.9,8.2c-10.8,0-19.2-5.1-23.4-8.4
					c-3.1,0.9-6.1,1.3-9.1,1.3c-13.9,0-22.1-9.6-26-15.9c-1.8,0.5-3.6,0.7-5.3,0.7h0c-8.6,0-14.2-5.6-17.3-11.2
					C146.3,575.7,133.7,574.6,130.2,559.1z"/>
			</g>
		</g>
		<path class="st4" d="M358.9,500.2c4.5,2.1,7.6,7.7,8.8,11.2l6.6-7.2l-6.2-9.3h-6.9l-2.4,1.6V500.2z"/>
		<path class="st4" d="M134.4,500.2c-4.5,2.1-7.6,7.7-8.8,11.2l-6.6-7.2l6.2-9.3h6.9l2.4,1.6V500.2z"/>
	</g>
	<path class="st4" d="M246.7,333.1c-18.1,21.1-28.8,51.2-28.8,51.2c10.3-17,28.8-32.8,28.8-32.8s18.5,15.8,28.8,32.8
		C275.6,384.3,264.9,354.2,246.7,333.1z"/>
	<g>
		<g>
			<path class="st3" d="M422.1,154c0,0-0.3-0.7-1-1.9c-0.6-1.2-1.6-2.9-2.8-4.8c-0.6-1-1.3-2-2.1-3c-0.7-1.1-1.7-2.1-2.5-3.1
				c-0.9-1-1.9-2.1-2.9-3.1c-1-1-2-2-3.2-2.8L406,134c-0.6-0.4-1.1-0.7-1.7-1.1c-1.1-0.8-2.3-1.3-3.3-1.9c-1-0.6-2.2-1-3.2-1.5
				c-0.5-0.2-1-0.4-1.4-0.6c-0.5-0.2-0.9-0.3-1.4-0.5c-0.9-0.3-1.7-0.6-2.4-0.8c-0.7-0.2-1.4-0.3-1.9-0.5c-1-0.3-1.6-0.5-1.6-0.5
				l-0.9-0.3c-4.9-1.7-7.5-7.2-5.8-12.1c1.7-4.9,7.2-7.5,12.1-5.8c0.2,0.1,0.5,0.2,0.7,0.3c0,0,0.9,0.4,2.3,1.1
				c0.7,0.4,1.6,0.8,2.6,1.4c1,0.6,2,1.4,3.2,2.2c0.6,0.4,1.2,0.8,1.8,1.3c0.6,0.5,1.1,1,1.7,1.6c1.2,1.1,2.4,2.2,3.5,3.5
				c1.1,1.3,2.2,2.6,3.2,4.1c0.5,0.7,1,1.5,1.5,2.2l1.3,2.3c0.9,1.5,1.5,3.1,2.2,4.6c0.7,1.5,1.1,3.1,1.6,4.6c0.4,1.5,0.8,3,1.1,4.4
				c0.3,1.4,0.5,2.7,0.7,3.9c0.3,2.4,0.4,4.4,0.4,5.8C422.1,153.2,422.1,154,422.1,154z"/>
		</g>
		<g>
			<path class="st3" d="M71.4,154c0,0-0.1-0.8-0.1-2.2c0-1.4,0.1-3.4,0.4-5.8c0.1-1.2,0.4-2.5,0.7-3.9c0.2-1.4,0.7-2.8,1.1-4.4
				c0.5-1.5,1-3.1,1.6-4.6c0.7-1.5,1.3-3.1,2.2-4.6l1.3-2.3c0.5-0.7,1-1.5,1.5-2.2c0.9-1.5,2.1-2.8,3.2-4.1c1.1-1.4,2.3-2.5,3.5-3.5
				c0.6-0.5,1.2-1.1,1.7-1.6c0.6-0.4,1.2-0.9,1.8-1.3c1.1-0.8,2.2-1.6,3.2-2.2c1-0.5,1.9-1,2.6-1.4c1.5-0.8,2.3-1.1,2.3-1.1
				c4.8-2.1,10.4,0,12.5,4.8c2.1,4.8,0,10.4-4.8,12.5c-0.2,0.1-0.4,0.2-0.7,0.3l-0.9,0.3c0,0-0.6,0.2-1.6,0.4
				c-0.5,0.1-1.2,0.3-1.9,0.5c-0.7,0.2-1.5,0.5-2.4,0.8c-0.4,0.1-0.9,0.3-1.4,0.5c-0.5,0.2-0.9,0.4-1.4,0.6c-1,0.4-2.1,0.9-3.1,1.5
				c-1.1,0.6-2.2,1.2-3.3,1.9c-0.6,0.4-1.1,0.7-1.7,1.1l-1.6,1.3c-1.1,0.8-2.1,1.8-3.2,2.8c-1,1-1.9,2-2.9,3.1
				c-0.9,1.1-1.8,2.1-2.5,3.1c-0.8,1-1.5,2.1-2.1,3c-1.3,1.9-2.2,3.6-2.9,4.8C71.7,153.3,71.4,154,71.4,154z"/>
		</g>
	</g>
	<path class="st4" d="M491.3,209.9c-5.5-48.1-21.2-89.1-46.6-122.1c-24-31.1-56.1-54.5-95.4-69.5C318.1,6.3,282.6,0,246.7,0
		s-71.3,6.3-102.6,18.3c-39.3,15-71.4,38.4-95.4,69.5c-25.4,33-41.1,74.1-46.6,122.1c-5.7,49.7-0.4,107.6,15.6,172.1
		c-5.5,13.2-11.6,35.7-4.1,60c6.3,20.4,20.6,33.1,34.5,40.4c-0.1,8.2-0.6,18.2-2.2,27.5c-6.2,35.2,14.8,79.8,59.1,125.6
		c43.9,45.5,86.3,64.9,141.6,64.9s97.6-19.4,141.6-64.9c44.3-45.8,65.3-90.5,59.1-125.6c-1.6-9.3-2.1-19.3-2.2-27.5
		c13.9-7.3,28.2-20,34.5-40.4c7.5-24.2,1.4-46.8-4.1-60C491.7,317.5,497,259.6,491.3,209.9z M445.8,385.1c0,0,14.7,23.8,7,48.6
		c-7.7,24.8-35.2,28.8-35.2,28.8s-2.3,27.5,2,52.3c4.4,24.8-13.4,61.7-51.6,101.2c-38.2,39.5-73.7,56.3-121.3,56.3
		c-47.6,0-83.1-16.8-121.3-56.3c-38.2-39.5-56-76.4-51.6-101.2c4.4-24.8,2-52.3,2-52.3s-27.5-4-35.2-28.8c-7.7-24.8,7-48.6,7-48.6
		C-28.7,94.5,136.1,28.2,246.7,28.2S522.2,94.5,445.8,385.1z"/>
	<g>
		<circle class="st2" cx="246.7" cy="163.7" r="11.6"/>
		<circle class="st3" cx="246.7" cy="208.9" r="6.7"/>
		<circle class="st1" cx="246.7" cy="249.9" r="4.6"/>
	</g>
	<g>
		<circle class="st1" cx="377.1" cy="580.9" r="4.6"/>
		<circle class="st1" cx="116.5" cy="580.9" r="4.6"/>
	</g>
	<g>
		<circle class="st2" cx="246.7" cy="645.5" r="11.6"/>
		<g>
			<ellipse class="st3" cx="304.7" cy="636.9" rx="6.7" ry="6.7"/>
			<ellipse class="st3" cx="188.7" cy="636.9" rx="6.7" ry="6.7"/>
		</g>
	</g>
	<g>
		<g>
			<g>
				<path class="st1" d="M384.7,250.2c0,0-0.4-0.5-1.2-1.4c-0.8-0.9-1.9-2.1-3.4-3.4c-0.7-0.7-1.5-1.4-2.4-2.1
					c-0.8-0.7-1.8-1.4-2.7-2.1c-1-0.6-2-1.3-3-1.9c-1.1-0.6-2.1-1.2-3.2-1.7l-1.6-0.7l-1.6-0.6c-1-0.4-2.1-0.6-3.1-0.9
					c-1-0.3-1.9-0.4-2.8-0.5c-0.9-0.2-1.7-0.3-2.5-0.3c-0.8,0-1.4-0.2-2.1-0.2c-0.6,0-1.1,0-1.6,0c-0.9,0-1.4-0.1-1.4-0.1l-0.8-0.1
					c-5.2-0.7-8.8-5.4-8.2-10.6c0.7-5.2,5.4-8.8,10.6-8.2c0.3,0,0.6,0.1,0.8,0.1c0,0,0.8,0.2,2.2,0.6c0.7,0.2,1.5,0.5,2.5,0.8
					c0.9,0.3,2,0.9,3.1,1.4c0.6,0.3,1.1,0.5,1.7,0.8c0.6,0.3,1.2,0.7,1.7,1.1c1.2,0.7,2.4,1.5,3.6,2.5c1.2,0.9,2.3,1.9,3.4,3.1
					c0.5,0.6,1.1,1.1,1.6,1.7l1.4,1.8c1,1.2,1.8,2.4,2.6,3.7c0.8,1.2,1.4,2.5,2.1,3.7c0.6,1.3,1.1,2.4,1.6,3.6
					c0.5,1.1,0.8,2.2,1.1,3.2C384.5,247.4,384.7,250.2,384.7,250.2z"/>
			</g>
			<g>
				<path class="st1" d="M108.8,250.2c0,0,0.4-0.5,1.2-1.4c0.8-0.9,1.9-2.1,3.4-3.4c0.7-0.7,1.5-1.4,2.4-2.1
					c0.8-0.7,1.8-1.4,2.7-2.1c1-0.6,2-1.3,3-1.9c1.1-0.6,2.1-1.2,3.2-1.7l1.6-0.7l1.6-0.6c1-0.4,2.1-0.6,3.1-0.9
					c1-0.3,1.9-0.4,2.8-0.5c0.9-0.2,1.7-0.3,2.5-0.3c0.8,0,1.4-0.2,2.1-0.2c0.6,0,1.1,0,1.6,0c0.9,0,1.4-0.1,1.4-0.1l0.8-0.1
					c5.2-0.7,8.8-5.4,8.2-10.6c-0.7-5.2-5.4-8.8-10.6-8.2c-0.3,0-0.6,0.1-0.8,0.1c0,0-0.8,0.2-2.2,0.6c-0.7,0.2-1.5,0.5-2.5,0.8
					c-0.9,0.3-2,0.9-3.1,1.4c-0.6,0.3-1.1,0.5-1.7,0.8c-0.6,0.3-1.1,0.7-1.7,1.1c-1.2,0.7-2.4,1.5-3.6,2.5c-1.2,0.9-2.3,1.9-3.4,3.1
					c-0.5,0.6-1.1,1.1-1.6,1.7l-1.4,1.8c-1,1.2-1.8,2.4-2.6,3.7c-0.8,1.2-1.4,2.5-2.1,3.7c-0.6,1.3-1.1,2.4-1.6,3.6
					c-0.5,1.1-0.8,2.2-1.1,3.2C108.9,247.4,108.8,250.2,108.8,250.2z"/>
			</g>
		</g>
		<g>
			<path class="st2" d="M415.3,268c0,0,0.3-0.2,0.7-0.7c0.4-0.4,1-1.1,1.5-1.9c0.6-0.8,1.2-1.8,1.7-2.8c0.2-0.5,0.5-1,0.7-1.6
				c0.2-0.5,0.4-1.1,0.5-1.6c0.3-1.1,0.4-2.1,0.4-3c0-0.4,0-0.9,0-1.3c0-0.4,0-0.8-0.1-1.1c0-0.7-0.1-1.2-0.2-1.6
				c-0.1-0.4,0-0.6,0-0.6l0-0.6c0.3-3.5,3.3-6.2,6.9-6c3.5,0.3,6.2,3.3,6,6.9c0,0.1,0,0.2,0,0.3c0,0-0.1,0.4-0.2,1.2
				c-0.2,0.8-0.4,1.8-0.9,3.1c-0.2,0.6-0.5,1.3-0.9,1.9c-0.4,0.7-0.7,1.4-1.3,2c-1,1.3-2.2,2.5-3.5,3.5c-1.3,1-2.6,1.8-4,2.4
				c-1.3,0.6-2.6,1-3.6,1.2C416.8,268.1,415.3,268,415.3,268z"/>
			<path class="st3" d="M418.3,278.3c0,0,0.3,0.2,0.8,0.5c0.5,0.3,1.2,0.9,1.9,1.5c0.7,0.6,1.5,1.5,2.3,2.3c0.3,0.5,0.7,0.9,1,1.4
				c0.3,0.5,0.6,0.9,0.9,1.5c0.5,1,0.8,2,1.1,2.9c0.1,0.4,0.2,0.9,0.3,1.3c0.1,0.4,0.1,0.8,0.2,1.1c0.1,0.7,0.1,1.2,0.2,1.6
				c0,0.4,0.1,0.6,0.1,0.6l0.2,0.6c1,3.4,4.6,5.3,8,4.3c3.4-1,5.3-4.6,4.3-8c0-0.1-0.1-0.2-0.1-0.3c0,0-0.1-0.4-0.5-1.1
				c-0.3-0.7-0.8-1.7-1.6-2.8c-0.4-0.5-0.8-1.1-1.3-1.7c-0.5-0.6-1-1.2-1.7-1.7c-1.2-1.1-2.7-2-4.2-2.7c-1.5-0.7-3-1.2-4.4-1.5
				c-1.4-0.2-2.7-0.4-3.8-0.4C419.7,277.9,418.3,278.3,418.3,278.3z"/>
			<path class="st2" d="M78.5,268c0,0-0.3-0.2-0.7-0.7c-0.4-0.4-1-1.1-1.5-1.9c-0.6-0.8-1.2-1.8-1.7-2.8c-0.2-0.5-0.5-1-0.7-1.6
				c-0.2-0.5-0.4-1.1-0.5-1.6c-0.3-1.1-0.4-2.1-0.4-3c0-0.4,0-0.9,0-1.3c0-0.4,0-0.8,0.1-1.1c0-0.7,0.1-1.2,0.2-1.6
				c0.1-0.4,0-0.6,0-0.6l0-0.6c-0.3-3.5-3.3-6.2-6.9-6c-3.5,0.3-6.2,3.3-6,6.9c0,0.1,0,0.2,0,0.3c0,0,0.1,0.4,0.2,1.2
				c0.2,0.8,0.4,1.8,0.9,3.1c0.2,0.6,0.5,1.3,0.9,1.9c0.4,0.7,0.7,1.4,1.3,2c1,1.3,2.2,2.5,3.5,3.5c1.3,1,2.6,1.8,4,2.4
				c1.3,0.6,2.6,1,3.6,1.2C77.1,268.1,78.5,268,78.5,268z"/>
			<path class="st3" d="M75.5,278.3c0,0-0.3,0.2-0.8,0.5c-0.5,0.3-1.2,0.9-1.9,1.5c-0.7,0.6-1.5,1.5-2.3,2.3c-0.3,0.5-0.7,0.9-1,1.4
				c-0.3,0.5-0.6,0.9-0.9,1.5c-0.5,1-0.8,2-1.1,2.9c-0.1,0.4-0.2,0.9-0.3,1.3c-0.1,0.4-0.1,0.8-0.2,1.1c-0.1,0.7-0.1,1.2-0.2,1.6
				c0,0.4-0.1,0.6-0.1,0.6l-0.2,0.6c-1,3.4-4.6,5.3-8,4.3c-3.4-1-5.3-4.6-4.3-8c0-0.1,0.1-0.2,0.1-0.3c0,0,0.1-0.4,0.5-1.1
				c0.3-0.7,0.8-1.7,1.6-2.8c0.4-0.5,0.8-1.1,1.3-1.7c0.5-0.6,1-1.2,1.7-1.7c1.2-1.1,2.7-2,4.2-2.7c1.5-0.7,3-1.2,4.4-1.5
				c1.4-0.2,2.7-0.4,3.8-0.4C74.1,277.9,75.5,278.3,75.5,278.3z"/>
		</g>
	</g>
	<g>
		<path class="st2" d="M117.6,430.9c0,0,0.3-0.2,0.8-0.4c0.5-0.3,1.3-0.6,2.2-0.9c0.9-0.4,2-0.6,3.1-0.9c0.6-0.1,1.1-0.2,1.7-0.2
			c0.6,0,1.1-0.1,1.7-0.1c1.1,0,2.1,0.2,3,0.4c0.4,0.1,0.9,0.3,1.2,0.4c0.4,0.1,0.7,0.2,1,0.4c0.6,0.2,1.1,0.4,1.5,0.6
			c0.3,0.2,0.5,0.2,0.5,0.2l0.6,0.1c3.4,0.7,6.8-1.5,7.5-5c0.7-3.4-1.5-6.8-5-7.5c-0.1,0-0.2,0-0.3-0.1c0,0-0.4-0.1-1.2-0.1
			c-0.8-0.1-1.8-0.1-3.1,0.1c-0.6,0.1-1.3,0.1-2.1,0.4c-0.7,0.2-1.5,0.4-2.2,0.7c-1.5,0.6-3,1.4-4.3,2.4c-1.3,0.9-2.4,2-3.3,3.1
			c-0.9,1.1-1.6,2.2-2.1,3.1C117.9,429.5,117.6,430.9,117.6,430.9z"/>
		<path class="st5" d="M105.8,428.1c0,0-0.1-0.3-0.3-0.9c-0.2-0.6-0.5-1.3-1-2.2c-0.4-0.9-1-1.8-1.6-2.8c-0.4-0.5-0.7-0.9-1.1-1.3
			c-0.4-0.4-0.7-0.8-1.2-1.2c-0.8-0.8-1.7-1.3-2.4-1.8c-0.4-0.2-0.8-0.4-1.1-0.6c-0.3-0.2-0.7-0.3-1-0.4c-0.6-0.3-1.1-0.5-1.5-0.6
			c-0.4-0.1-0.5-0.2-0.5-0.2l-0.5-0.3c-3-1.9-3.8-5.8-2-8.8c1.9-3,5.8-3.8,8.8-2c0.1,0.1,0.2,0.1,0.2,0.2c0,0,0.4,0.3,0.9,0.8
			c0.6,0.5,1.4,1.2,2.2,2.2c0.4,0.5,0.9,1,1.2,1.7c0.4,0.6,0.8,1.3,1.1,2c0.7,1.4,1.2,3.1,1.4,4.7c0.3,1.6,0.3,3.1,0.2,4.6
			c-0.1,1.4-0.4,2.7-0.7,3.7C106.5,426.9,105.8,428.1,105.8,428.1z"/>
		<path class="st1" d="M97.4,435.3c0,0-0.3,0.1-0.9,0.2c-0.6,0.1-1.4,0.3-2.3,0.7c-0.9,0.3-1.9,0.8-2.9,1.3c-0.5,0.3-1,0.6-1.5,0.9
			c-0.5,0.3-0.9,0.6-1.3,1c-0.8,0.7-1.5,1.5-2,2.2c-0.3,0.3-0.5,0.7-0.7,1.1c-0.2,0.3-0.4,0.6-0.6,0.9c-0.3,0.6-0.6,1.1-0.8,1.4
			c-0.2,0.3-0.3,0.5-0.3,0.5l-0.4,0.5c-2.2,2.7-6.2,3.1-8.9,0.9c-2.7-2.2-3.1-6.2-0.9-8.9c0.1-0.1,0.1-0.2,0.2-0.2
			c0,0,0.3-0.3,0.9-0.8c0.5-0.5,1.3-1.3,2.5-1.9c0.5-0.4,1.1-0.7,1.8-1c0.7-0.3,1.4-0.7,2.2-0.9c1.5-0.5,3.2-0.8,4.8-0.9
			c1.6-0.1,3.2,0,4.6,0.3c1.4,0.3,2.6,0.7,3.6,1.1C96.3,434.4,97.4,435.3,97.4,435.3z"/>
	</g>
	<g>
		<path class="st2" d="M375.9,430.9c0,0-0.3-0.2-0.8-0.4c-0.5-0.3-1.3-0.6-2.2-0.9c-0.9-0.4-2-0.6-3.1-0.9c-0.6-0.1-1.1-0.2-1.7-0.2
			c-0.6,0-1.1-0.1-1.7-0.1c-1.1,0-2.1,0.2-3,0.4c-0.4,0.1-0.9,0.3-1.2,0.4c-0.4,0.1-0.7,0.2-1,0.4c-0.6,0.2-1.1,0.4-1.5,0.6
			c-0.3,0.2-0.6,0.2-0.6,0.2l-0.6,0.1c-3.4,0.7-6.8-1.5-7.5-5c-0.7-3.4,1.5-6.8,5-7.5c0.1,0,0.2,0,0.3-0.1c0,0,0.4-0.1,1.2-0.1
			c0.8-0.1,1.8-0.1,3.1,0.1c0.6,0.1,1.3,0.1,2.1,0.4c0.7,0.2,1.5,0.4,2.2,0.7c1.5,0.6,3,1.4,4.3,2.4c1.3,0.9,2.4,2,3.3,3.1
			c0.9,1.1,1.6,2.2,2.1,3.1C375.6,429.5,375.9,430.9,375.9,430.9z"/>
		<path class="st5" d="M387.7,428.1c0,0,0.1-0.3,0.3-0.9c0.2-0.6,0.5-1.3,1-2.2c0.4-0.9,1-1.8,1.6-2.8c0.4-0.5,0.7-0.9,1.1-1.3
			c0.4-0.4,0.7-0.8,1.2-1.2c0.8-0.8,1.7-1.3,2.4-1.8c0.4-0.2,0.8-0.4,1.1-0.6c0.3-0.2,0.7-0.3,1-0.4c0.6-0.3,1.1-0.5,1.5-0.6
			c0.4-0.1,0.5-0.2,0.5-0.2l0.5-0.3c3-1.9,3.8-5.8,2-8.8c-1.9-3-5.8-3.8-8.8-2c-0.1,0.1-0.2,0.1-0.2,0.2c0,0-0.4,0.3-0.9,0.8
			c-0.6,0.5-1.4,1.2-2.2,2.2c-0.4,0.5-0.9,1-1.2,1.7c-0.4,0.6-0.8,1.3-1.1,2c-0.7,1.4-1.2,3.1-1.4,4.7c-0.3,1.6-0.3,3.1-0.2,4.6
			c0.1,1.4,0.4,2.7,0.7,3.7C387,426.9,387.7,428.1,387.7,428.1z"/>
		<path class="st1" d="M396.2,435.3c0,0,0.3,0.1,0.9,0.2c0.6,0.1,1.4,0.3,2.3,0.7c0.9,0.3,1.9,0.8,2.9,1.3c0.5,0.3,1,0.6,1.5,0.9
			c0.5,0.3,0.9,0.6,1.3,1c0.8,0.7,1.5,1.5,2,2.2c0.3,0.3,0.5,0.7,0.7,1.1c0.2,0.3,0.4,0.6,0.6,0.9c0.3,0.6,0.6,1.1,0.8,1.4
			c0.2,0.3,0.3,0.5,0.3,0.5l0.4,0.5c2.2,2.7,6.2,3.1,8.9,0.9c2.7-2.2,3.1-6.2,0.9-8.9c-0.1-0.1-0.1-0.2-0.2-0.2c0,0-0.3-0.3-0.9-0.8
			c-0.5-0.5-1.3-1.3-2.5-1.9c-0.6-0.4-1.1-0.7-1.8-1c-0.7-0.3-1.4-0.7-2.2-0.9c-1.5-0.5-3.2-0.8-4.8-0.9c-1.6-0.1-3.2,0-4.6,0.3
			c-1.4,0.3-2.6,0.7-3.6,1.1C397.3,434.4,396.2,435.3,396.2,435.3z"/>
	</g>
	<g>
		<g>
			<path class="st3" d="M393.4,554.1c0,0,1.1-1.6,2.2-4.2c0.6-1.3,1.1-2.8,1.6-4.4c0.2-0.8,0.4-1.6,0.6-2.5c0.2-0.8,0.3-1.7,0.5-2.5
				c0.1-0.8,0.2-1.7,0.3-2.5c0-0.8,0.1-1.6,0.1-2.4c0-1.6,0-2.9,0-4.1c0-1.2-0.1-2.2-0.1-2.8c0-0.7,0-1.1,0-1.1l0-0.5
				c0.3-4.1,4-7.2,8.1-6.9c4.1,0.3,7.2,4,6.9,8.1c0,0.1,0,0.3-0.1,0.5c0,0-0.1,0.5-0.3,1.5c-0.2,0.9-0.5,2.2-1.1,3.8
				c-0.3,0.8-0.5,1.6-1,2.4c-0.4,0.8-0.8,1.7-1.3,2.6c-0.5,0.9-1,1.8-1.6,2.7c-0.6,0.9-1.2,1.7-1.9,2.6c-0.7,0.8-1.3,1.6-2.1,2.4
				c-0.7,0.8-1.4,1.5-2.2,2.1c-1.5,1.3-2.9,2.3-4.2,3.1c-1.3,0.8-2.4,1.3-3.2,1.7C393.8,554,393.4,554.1,393.4,554.1z"/>
			<path class="st2" d="M399.6,499.8c0,0-0.2,0.3-0.6,0.7c-0.4,0.5-0.9,1.1-1.4,2c-0.6,0.8-1.1,1.8-1.6,2.8
				c-0.2,0.6-0.5,1.1-0.6,1.6c-0.2,0.5-0.4,1.1-0.5,1.6c-0.3,1.1-0.3,2.1-0.3,3.1c0,0.4,0,0.9,0.1,1.3c0,0.4,0.1,0.8,0.1,1.1
				c0.1,0.7,0.2,1.2,0.2,1.6c0.1,0.4,0.1,0.6,0.1,0.6l0,0.6c-0.1,3.6-3.1,6.3-6.7,6.2c-3.6-0.1-6.3-3.1-6.2-6.7c0-0.1,0-0.2,0-0.3
				c0,0,0-0.4,0.2-1.2c0.1-0.8,0.3-1.8,0.8-3.1c0.2-0.6,0.5-1.3,0.8-2c0.4-0.7,0.7-1.4,1.2-2c0.9-1.3,2.1-2.6,3.4-3.6
				c1.2-1.1,2.6-1.9,3.9-2.5c1.3-0.6,2.5-1.1,3.6-1.3C398.1,499.8,399.6,499.8,399.6,499.8z"/>
		</g>
		<g>
			<path class="st3" d="M99.9,554.1c0,0-0.5-0.1-1.3-0.5c-0.8-0.4-1.9-0.9-3.2-1.7c-1.3-0.8-2.7-1.9-4.2-3.1
				c-0.8-0.6-1.5-1.3-2.2-2.1c-0.7-0.7-1.4-1.6-2.1-2.4c-0.7-0.8-1.3-1.7-1.9-2.6c-0.6-0.9-1.1-1.8-1.6-2.7
				c-0.5-0.9-0.9-1.8-1.3-2.6c-0.4-0.8-0.7-1.7-1-2.4c-0.6-1.5-0.8-2.9-1.1-3.8c-0.2-0.9-0.3-1.5-0.3-1.5c-0.6-4.1,2.3-7.9,6.4-8.5
				c4.1-0.6,7.9,2.3,8.5,6.4c0,0.1,0,0.3,0.1,0.4l0,0.5c0,0,0,0.4,0,1.1c0,0.7-0.1,1.7-0.1,2.8c-0.1,1.2,0,2.6,0,4.1
				c0,0.8,0.1,1.6,0.1,2.4c0.1,0.8,0.1,1.7,0.3,2.5c0.2,0.8,0.3,1.7,0.5,2.5c0.2,0.8,0.4,1.7,0.6,2.5c0.4,1.6,1,3.1,1.6,4.4
				C98.8,552.4,99.9,554.1,99.9,554.1z"/>
			<path class="st2" d="M93.8,499.8c0,0,1.4,0,3.6,0.5c1.1,0.3,2.3,0.7,3.6,1.3c1.3,0.6,2.6,1.5,3.9,2.5c1.3,1,2.4,2.3,3.4,3.6
				c0.5,0.6,0.8,1.4,1.2,2c0.4,0.7,0.6,1.3,0.8,2c0.5,1.3,0.7,2.3,0.8,3.1c0.1,0.8,0.2,1.2,0.2,1.2c0.3,3.5-2.4,6.7-5.9,6.9
				c-3.5,0.3-6.7-2.4-6.9-5.9c0-0.1,0-0.2,0-0.3l0-0.7c0,0,0-0.2,0.1-0.6c0.1-0.4,0.2-0.9,0.2-1.6c0.1-0.3,0.1-0.7,0.1-1.1
				c0-0.4,0.1-0.8,0.1-1.3c0-0.9,0-2-0.3-3.1c-0.1-0.6-0.3-1.1-0.5-1.6c-0.2-0.5-0.4-1.1-0.6-1.6c-0.5-1-1-2-1.6-2.8
				c-0.5-0.8-1.1-1.5-1.4-2C94,500.1,93.8,499.8,93.8,499.8z"/>
		</g>
	</g>
	<g>
		<g>
			<path class="st3" d="M335.1,423.7c0,0-0.5,0.1-1.4,0.5c-0.9,0.4-2.1,0.9-3.5,1.7c-1.4,0.8-3,1.9-4.6,3.2
				c-0.8,0.6-1.6,1.4-2.4,2.2c-0.8,0.8-1.5,1.6-2.3,2.5c-0.8,0.9-1.4,1.8-2.1,2.7c-0.7,0.9-1.3,1.9-1.9,2.8c-0.6,0.9-1,1.9-1.5,2.8
				c-0.5,0.9-0.8,1.8-1.1,2.6c-0.7,1.6-1,3-1.3,4c-0.3,1-0.4,1.6-0.4,1.6c-0.8,4.4,2.1,8.6,6.5,9.4c4.4,0.8,8.6-2.1,9.4-6.5
				c0-0.2,0-0.3,0.1-0.5l0.1-0.5c0,0,0.1-0.4,0-1.1c0-0.7,0-1.8,0-3.1c0-1.3,0.1-2.8,0.1-4.4c0.1-0.8,0.1-1.7,0.2-2.6
				c0.1-0.9,0.2-1.8,0.4-2.7c0.2-0.9,0.3-1.8,0.6-2.7c0.2-0.9,0.5-1.8,0.8-2.6c0.5-1.7,1.2-3.3,1.8-4.6
				C333.9,425.4,335.1,423.7,335.1,423.7z"/>
		</g>
		<g>
			<path class="st3" d="M158.5,423.7c0,0,0.5,0.1,1.4,0.5c0.9,0.4,2.1,0.9,3.5,1.7c1.4,0.8,3,1.9,4.6,3.2c0.8,0.6,1.6,1.4,2.4,2.2
				c0.8,0.8,1.5,1.6,2.3,2.5c0.8,0.9,1.4,1.8,2.1,2.7c0.7,0.9,1.3,1.9,1.9,2.8c0.6,0.9,1,1.9,1.5,2.8c0.5,0.9,0.8,1.8,1.1,2.6
				c0.7,1.6,1,3,1.3,4c0.3,1,0.4,1.6,0.4,1.6c0.8,4.4-2.1,8.6-6.5,9.4c-4.4,0.8-8.6-2.1-9.4-6.5c0-0.2,0-0.3-0.1-0.5l-0.1-0.5
				c0,0-0.1-0.4,0-1.1c0-0.7,0-1.8,0-3.1c0-1.3-0.1-2.8-0.1-4.4c-0.1-0.8-0.1-1.7-0.2-2.6c-0.1-0.9-0.2-1.8-0.4-2.7
				c-0.2-0.9-0.3-1.8-0.6-2.7c-0.2-0.9-0.5-1.8-0.8-2.6c-0.5-1.7-1.2-3.3-1.8-4.6C159.8,425.4,158.5,423.7,158.5,423.7z"/>
		</g>
	</g>
	<g>
		<path class="st6" d="M70.4,380.2c0,0,0.2,0.4,0.6,1.1c0.3,0.7,0.8,1.7,1.3,2.9c1,2.4,2.2,5.6,3.3,8.9c0.5,1.6,1,3.2,1.4,4.7
			c0.4,1.5,0.7,2.9,0.8,4.1c0.4,2.4,0.3,4,0.3,4c-0.2,4.3-3.7,7.6-8,7.5c-4.1-0.1-7.3-3.4-7.5-7.5c0,0-0.1-1.6,0.3-4
			c0.2-1.2,0.5-2.6,0.8-4.1c0.4-1.5,0.9-3.1,1.4-4.7c1-3.2,2.2-6.5,3.3-8.9c0.6-1.2,1-2.2,1.3-2.9C70.2,380.6,70.4,380.2,70.4,380.2
			z"/>
		<path class="st6" d="M246.7,320.4c0,0-0.2-0.4-0.6-1.1c-0.3-0.7-0.8-1.7-1.3-2.9c-1-2.4-2.2-5.6-3.3-8.9c-0.5-1.6-1-3.2-1.4-4.7
			c-0.4-1.5-0.7-2.9-0.8-4.1c-0.4-2.4-0.3-4-0.3-4c0.2-4.3,3.7-7.6,8-7.5c4.1,0.1,7.3,3.4,7.5,7.5c0,0,0.1,1.6-0.3,4
			c-0.2,1.2-0.5,2.6-0.8,4.1c-0.4,1.5-0.9,3.1-1.4,4.7c-1,3.2-2.2,6.5-3.3,8.9c-0.6,1.2-1,2.2-1.3,2.9
			C246.9,320,246.7,320.4,246.7,320.4z"/>
		<path class="st6" d="M423.1,380.2c0,0,0.2,0.4,0.6,1.1c0.3,0.7,0.8,1.7,1.3,2.9c1,2.4,2.2,5.6,3.3,8.9c0.5,1.6,1,3.2,1.4,4.7
			c0.4,1.5,0.7,2.9,0.8,4.1c0.4,2.4,0.3,4,0.3,4c-0.2,4.3-3.7,7.6-8,7.5c-4.1-0.1-7.3-3.4-7.5-7.5c0,0-0.1-1.6,0.3-4
			c0.2-1.2,0.5-2.6,0.8-4.1c0.4-1.5,0.9-3.1,1.4-4.7c1-3.2,2.2-6.5,3.3-8.9c0.6-1.2,1-2.2,1.3-2.9
			C422.9,380.6,423.1,380.2,423.1,380.2z"/>
	</g>
	<g>
		<path class="st5" d="M329,623.9c0,0,3.3-19.7,25.8-18.6C354.7,605.2,352.2,625.6,329,623.9z"/>
		<path class="st5" d="M164.6,623.9c0,0-3.3-19.7-25.8-18.6C138.8,605.2,141.3,625.6,164.6,623.9z"/>
	</g>
</g>
</svg>
